<svg width="1235" height="896" viewBox="0 0 1235 896" fill="none" xmlns="http://www.w3.org/2000/svg">
<g clip-path="url(#clip0_105_5)">
<path d="M269.03 37.014L274.653 500.367L517.599 618.582L511.977 155.23L269.03 37.014Z" fill="#F2F2F2"/>
<path d="M195.203 0L13.6676 372.282L259.986 492.14L254.363 28.7869L195.203 0Z" fill="#F2F2F2"/>
<path d="M1287 522.993L796.695 284.416L802.318 747.768L1105.46 895.275L1287 522.993Z" fill="#F2F2F2"/>
<path d="M533.939 155.23L539.562 618.582L782.51 736.798L776.888 273.446L533.939 155.23Z" fill="#F2F2F2"/>
<path d="M618.383 525.092L611.519 678.666C611.519 678.666 629.364 824.012 625.246 828.126C621.128 832.239 610.147 840.467 618.383 850.065C626.619 859.663 656.817 866.519 658.19 861.035C659.562 855.55 662.308 699.233 662.308 699.233L671.916 514.122L618.383 525.092Z" fill="#2F2E41"/>
<path opacity="0.2" d="M618.383 525.092L611.519 678.666C611.519 678.666 629.364 824.012 625.246 828.126C621.128 832.239 610.147 840.467 618.383 850.065C626.619 859.663 656.817 866.519 658.19 861.035C659.562 855.55 662.308 699.233 662.308 699.233L671.916 514.122L618.383 525.092Z" fill="black"/>
<path d="M625.246 847.322C625.246 847.322 590.93 873.375 586.812 873.375C582.694 873.375 545.632 885.716 571.712 891.201C597.793 896.686 660.935 893.943 662.308 885.716C663.68 877.489 658.19 852.521 658.19 852.521L625.246 847.322Z" fill="#2F2E41"/>
<path opacity="0.2" d="M625.246 847.322C625.246 847.322 590.93 873.375 586.812 873.375C582.694 873.375 545.632 885.716 571.712 891.201C597.793 896.686 660.935 893.943 662.308 885.716C663.68 877.489 658.19 852.521 658.19 852.521L625.246 847.322Z" fill="black"/>
<path d="M540.141 409.911C540.141 409.911 525.042 415.396 525.042 419.51C525.042 423.623 511.315 475.729 508.57 478.471C505.825 481.213 504.452 493.554 504.452 493.554C504.452 493.554 490.725 525.092 493.471 525.092C496.216 525.092 519.551 519.607 520.924 525.092C522.297 530.576 533.278 490.812 533.278 490.812L556.613 444.191L540.141 409.911Z" fill="white"/>
<path d="M493.471 530.576C493.471 530.576 497.589 560.743 508.57 563.485C519.551 566.228 508.57 525.092 508.57 525.092L493.471 530.576Z" fill="#FFB8B8"/>
<path d="M529.16 393.457C529.16 393.457 537.396 411.282 541.514 420.881C545.632 430.479 584.066 396.199 584.066 396.199C584.066 396.199 563.476 381.116 563.476 374.26C563.476 367.404 529.16 393.457 529.16 393.457Z" fill="#FFB8B8"/>
<path d="M133.202 839.171C142.407 873.164 173.938 894.217 173.938 894.217C173.938 894.217 190.544 860.156 181.339 826.163C172.133 792.171 140.602 771.118 140.602 771.118C140.602 771.118 123.996 805.179 133.202 839.171Z" fill="#3F3D56"/>
<path d="M146.729 831.866C171.989 856.429 175.074 894.189 175.074 894.189C175.074 894.189 137.205 892.124 111.945 867.56C86.6844 842.997 83.5991 805.237 83.5991 805.237C83.5991 805.237 121.468 807.302 146.729 831.866Z" fill="white"/>
<path d="M460.527 895.314C435.822 895.314 411.671 887.996 391.13 874.285C370.588 860.574 354.578 841.087 345.123 818.286C335.669 795.486 333.195 770.397 338.015 746.192C342.835 721.988 354.732 699.754 372.201 682.304C389.67 664.853 411.927 652.969 436.158 648.154C460.388 643.34 485.504 645.811 508.329 655.255C531.153 664.699 550.662 680.692 564.388 701.212C578.113 721.732 585.439 745.857 585.439 770.536C585.402 803.617 572.229 835.334 548.812 858.726C525.394 882.119 493.644 895.277 460.527 895.314ZM460.527 648.499C436.365 648.499 412.745 655.656 392.655 669.066C372.565 682.476 356.906 701.535 347.66 723.834C338.413 746.134 335.994 770.671 340.708 794.344C345.422 818.016 357.057 839.761 374.142 856.828C391.227 873.895 412.995 885.518 436.694 890.227C460.392 894.936 484.955 892.519 507.278 883.282C529.601 874.046 548.681 858.404 562.105 838.335C575.529 818.267 582.694 794.672 582.694 770.536C582.657 738.181 569.774 707.161 546.872 684.283C523.969 661.405 492.916 648.536 460.527 648.499Z" fill="#2F2E41"/>
<path d="M844.871 895.314C820.166 895.314 796.016 887.996 775.474 874.285C754.932 860.574 738.922 841.087 729.468 818.286C720.014 795.486 717.54 770.397 722.36 746.192C727.179 721.988 739.076 699.754 756.545 682.304C774.015 664.853 796.272 652.969 820.502 648.154C844.733 643.34 869.848 645.811 892.673 655.255C915.498 664.699 935.006 680.692 948.732 701.212C962.457 721.732 969.783 745.857 969.783 770.536C969.746 803.617 956.574 835.334 933.156 858.726C909.739 882.119 877.989 895.277 844.871 895.314ZM844.871 648.499C820.709 648.499 797.089 655.656 776.999 669.066C756.909 682.476 741.251 701.535 732.004 723.834C722.758 746.134 720.338 770.671 725.052 794.344C729.766 818.016 741.401 839.761 758.487 856.828C775.572 873.895 797.34 885.518 821.038 890.227C844.736 894.936 869.299 892.519 891.623 883.282C913.946 874.046 933.025 858.404 946.449 838.335C959.873 818.267 967.038 794.672 967.038 770.536C967.002 738.181 954.119 707.161 931.216 684.283C908.313 661.405 877.261 648.536 844.871 648.499Z" fill="#2F2E41"/>
<path d="M460.527 778.763C465.076 778.763 468.763 775.079 468.763 770.536C468.763 765.992 465.076 762.308 460.527 762.308C455.978 762.308 452.291 765.992 452.291 770.536C452.291 775.079 455.978 778.763 460.527 778.763Z" fill="#2F2E41"/>
<path d="M847.617 778.763C852.165 778.763 855.853 775.079 855.853 770.536C855.853 765.992 852.165 762.308 847.617 762.308C843.068 762.308 839.381 765.992 839.381 770.536C839.381 775.079 843.068 778.763 847.617 778.763Z" fill="#2F2E41"/>
<path d="M472.771 758.733L470.245 757.657L541.987 589.519L745.429 593.666L745.823 594.283L846.027 750.599L843.716 752.079L743.905 596.379L543.786 592.299L472.771 758.733Z" fill="#2F2E41"/>
<path d="M686.501 789.984L739.229 604.247L741.87 604.995L690.276 786.738L828.227 769.175L828.572 771.897L686.501 789.984Z" fill="#2F2E41"/>
<path d="M537.003 631.085L535.043 633.005L676.427 776.98L678.387 775.06L537.003 631.085Z" fill="#2F2E41"/>
<path d="M752.945 560.381L744.722 590.551L747.371 591.271L755.594 561.101L752.945 560.381Z" fill="#2F2E41"/>
<path d="M546.972 581.614L544.292 581.007L550.775 552.516H527.787V534.691H530.533V549.774H554.215L546.972 581.614Z" fill="#2F2E41"/>
<path d="M703.488 533.319C703.488 533.319 703.488 525.092 721.332 529.205C739.177 533.319 794.083 544.288 798.201 542.917C802.319 541.546 800.946 551.144 783.102 555.258C765.257 559.372 744.667 549.773 740.549 547.031C736.431 544.288 703.488 533.319 703.488 533.319Z" fill="#2F2E41"/>
<path d="M654.072 778.763H618.383V792.475H654.072V778.763Z" fill="white"/>
<path d="M688.388 815.785C682.958 815.785 677.651 814.177 673.136 811.163C668.621 808.15 665.103 803.867 663.025 798.856C660.947 793.845 660.403 788.331 661.463 783.011C662.522 777.691 665.137 772.805 668.976 768.97C672.815 765.134 677.707 762.522 683.032 761.464C688.358 760.406 693.878 760.949 698.894 763.025C703.911 765.1 708.198 768.615 711.215 773.125C714.231 777.635 715.841 782.937 715.841 788.361C715.833 795.632 712.938 802.603 707.792 807.744C702.645 812.885 695.667 815.777 688.388 815.785ZM688.388 763.68C683.501 763.68 678.724 765.127 674.661 767.839C670.598 770.551 667.431 774.406 665.561 778.916C663.691 783.426 663.202 788.388 664.155 793.176C665.108 797.964 667.462 802.362 670.917 805.814C674.373 809.265 678.775 811.616 683.568 812.568C688.361 813.521 693.329 813.032 697.844 811.164C702.358 809.296 706.217 806.132 708.932 802.073C711.647 798.015 713.096 793.243 713.096 788.361C713.089 781.817 710.483 775.544 705.851 770.917C701.219 766.29 694.939 763.687 688.388 763.68Z" fill="#2F2E41"/>
<path d="M541.514 407.169C559.708 407.169 574.458 392.435 574.458 374.26C574.458 356.085 559.708 341.352 541.514 341.352C523.32 341.352 508.57 356.085 508.57 374.26C508.57 392.435 523.32 407.169 541.514 407.169Z" fill="#FFB8B8"/>
<path d="M645.836 527.834C645.836 527.834 551.122 582.682 552.495 600.507C553.868 618.333 625.246 715.688 625.246 715.688C625.246 715.688 630.737 744.483 636.227 744.483C641.718 744.483 676.034 756.824 677.407 748.596C678.78 740.369 666.426 730.771 667.798 725.286C669.171 719.801 607.401 619.704 607.401 619.704C607.401 619.704 739.598 570.341 711.934 527.834C684.27 485.327 645.836 527.834 645.836 527.834Z" fill="#2F2E41"/>
<path d="M648.581 738.998C648.581 738.998 632.109 743.112 629.364 748.596C626.619 754.081 578.576 771.907 592.302 776.02C606.029 780.134 685.643 781.505 688.388 778.763C691.134 776.02 688.388 744.191 677.407 744.337C666.426 744.483 654.072 748.596 648.581 738.998Z" fill="#2F2E41"/>
<path d="M541.514 424.994L572.399 387.287C572.399 387.287 607.401 377.003 622.501 397.571C637.6 418.138 678.78 468.873 692.506 479.842C706.233 490.812 725.45 533.319 718.587 534.69C711.723 536.061 673.289 519.607 658.19 530.577C643.091 541.546 614.265 542.917 612.892 537.432C611.519 531.948 529.16 440.078 529.16 427.737C529.16 415.396 537.936 412.748 537.936 412.748L541.514 424.994Z" fill="white"/>
<path d="M558.102 534.011L516.689 519.385C514.545 518.628 512.192 519.751 511.434 521.892C510.676 524.034 511.8 526.385 513.944 527.142L555.357 541.768C557.501 542.525 559.854 541.402 560.612 539.26C561.37 537.119 560.247 534.768 558.102 534.011Z" fill="#2F2E41"/>
<path d="M464.645 516.865C464.645 516.865 416.602 530.576 420.72 545.66C424.838 560.743 468.763 527.834 468.763 527.834L464.645 516.865Z" fill="#FFB8B8"/>
<path d="M589.557 397.571C589.557 397.571 570.34 414.025 566.222 433.222C562.104 452.418 541.514 486.698 541.514 486.698L457.782 514.122C457.782 514.122 452.291 540.175 460.527 540.175C468.763 540.175 560.731 520.978 563.476 516.865C566.222 512.751 625.246 434.593 625.246 434.593C625.246 434.593 630.737 392.086 589.557 397.571Z" fill="white"/>
<path d="M521.052 336.171C520.241 336.869 519.269 337.356 518.223 337.589C517.698 337.682 517.157 337.565 516.719 337.261C516.281 336.958 515.98 336.494 515.883 335.97C515.279 337.647 514.154 339.088 512.673 340.083C511.101 340.901 508.671 340.215 508.444 338.459C508.215 339.792 507.624 341.038 506.737 342.059C506.274 342.548 505.637 342.835 504.964 342.858C504.291 342.88 503.636 342.636 503.141 342.18C503.83 345.937 503.405 349.802 503.621 353.616C503.837 357.43 504.855 361.474 507.74 363.982C511.947 367.639 518.273 366.736 523.807 366.044C524.644 365.868 525.512 365.916 526.325 366.181C528.397 367.063 528.303 369.944 528.331 372.194C528.5 376.142 530.064 379.901 532.745 382.806C535.427 385.711 539.051 387.572 542.976 388.06C545.173 388.398 547.414 387.852 549.208 386.541C550.779 385.21 551.581 383.042 553.382 382.043C556.311 380.417 559.862 382.788 562.004 385.362C564.145 387.936 566.255 391.103 569.572 391.574C573.959 392.197 577.301 387.731 578.94 383.618C581.202 377.855 582.286 371.697 582.127 365.508C581.969 359.319 580.571 353.225 578.018 347.584C568.857 327.637 537.566 324.482 521.052 336.171Z" fill="#2F2E41"/>
<path d="M1100.72 895.258L1098.28 893.999C1129.96 832.811 1113.02 753.349 1093.23 697.463C1079.79 659.9 1062.65 623.763 1042.06 589.585L1044.38 588.12C1065.08 622.472 1082.31 658.793 1095.82 696.547C1115.79 752.944 1132.85 833.199 1100.72 895.258Z" fill="#2F2E41"/>
<path d="M1124.22 588.611L1106.41 685.972L1109.11 686.465L1126.92 589.104L1124.22 588.611Z" fill="#2F2E41"/>
<path d="M1005.79 671.561L1003.78 673.43L1095.75 772.156L1097.76 770.287L1005.79 671.561Z" fill="#2F2E41"/>
<path d="M1171.13 780.008L1124.48 844.47L1126.7 846.077L1173.35 781.615L1171.13 780.008Z" fill="#2F2E41"/>
<path d="M1132.44 562.8C1140.02 562.8 1146.17 556.661 1146.17 549.088C1146.17 541.515 1140.02 535.376 1132.44 535.376C1124.86 535.376 1118.72 541.515 1118.72 549.088C1118.72 556.661 1124.86 562.8 1132.44 562.8Z" fill="white"/>
<path d="M982.824 668.382C990.405 668.382 996.55 662.243 996.55 654.67C996.55 647.097 990.405 640.958 982.824 640.958C975.243 640.958 969.097 647.097 969.097 654.67C969.097 662.243 975.243 668.382 982.824 668.382Z" fill="#3F3D56"/>
<path d="M1043.22 682.094C1050.8 682.094 1056.95 675.954 1056.95 668.382C1056.95 660.809 1050.8 654.67 1043.22 654.67C1035.64 654.67 1029.49 660.809 1029.49 668.382C1029.49 675.954 1035.64 682.094 1043.22 682.094Z" fill="#3F3D56"/>
<path d="M1015.77 735.57C1023.35 735.57 1029.49 729.431 1029.49 721.858C1029.49 714.285 1023.35 708.146 1015.77 708.146C1008.19 708.146 1002.04 714.285 1002.04 721.858C1002.04 729.431 1008.19 735.57 1015.77 735.57Z" fill="white"/>
<path d="M1187.35 769.85C1194.93 769.85 1201.08 763.711 1201.08 756.138C1201.08 748.565 1194.93 742.426 1187.35 742.426C1179.77 742.426 1173.62 748.565 1173.62 756.138C1173.62 763.711 1179.77 769.85 1187.35 769.85Z" fill="#3F3D56"/>
<path d="M1142.05 784.933C1149.63 784.933 1155.78 778.794 1155.78 771.221C1155.78 763.648 1149.63 757.509 1142.05 757.509C1134.47 757.509 1128.33 763.648 1128.33 771.221C1128.33 778.794 1134.47 784.933 1142.05 784.933Z" fill="#3F3D56"/>
<path d="M1173.62 828.811C1181.2 828.811 1187.35 822.672 1187.35 815.099C1187.35 807.527 1181.2 801.388 1173.62 801.388C1166.04 801.388 1159.9 807.527 1159.9 815.099C1159.9 822.672 1166.04 828.811 1173.62 828.811Z" fill="#3F3D56"/>
<path d="M1029.49 579.254C1037.07 579.254 1043.22 573.115 1043.22 565.542C1043.22 557.969 1037.07 551.83 1029.49 551.83C1021.91 551.83 1015.77 557.969 1015.77 565.542C1015.77 573.115 1021.91 579.254 1029.49 579.254Z" fill="#3F3D56"/>
<path d="M1239.51 893.258H0V896H1239.51V893.258Z" fill="#2F2E41"/>
<path d="M212.673 609.32L96.175 542.132L28.9148 658.506L145.413 725.694L212.673 609.32Z" fill="#F2F2F2"/>
<path d="M148.247 749.093C142.274 749.093 136.436 747.324 131.47 744.009C126.504 740.695 122.633 735.983 120.347 730.471C118.062 724.959 117.464 718.894 118.629 713.042C119.794 707.19 122.67 701.815 126.894 697.596C131.117 693.377 136.498 690.504 142.356 689.34C148.214 688.176 154.285 688.774 159.804 691.057C165.322 693.34 170.038 697.207 173.356 702.168C176.674 707.128 178.446 712.961 178.446 718.927C178.437 726.925 175.252 734.593 169.591 740.248C163.929 745.903 156.253 749.084 148.247 749.093ZM148.247 691.503C142.817 691.503 137.51 693.112 132.995 696.125C128.48 699.138 124.962 703.421 122.884 708.432C120.806 713.443 120.262 718.957 121.321 724.277C122.381 729.597 124.995 734.483 128.835 738.319C132.674 742.154 137.566 744.766 142.891 745.824C148.217 746.882 153.737 746.339 158.753 744.263C163.769 742.188 168.057 738.673 171.074 734.163C174.09 729.653 175.7 724.351 175.7 718.927C175.692 711.656 172.797 704.686 167.65 699.544C162.504 694.403 155.526 691.511 148.247 691.503Z" fill="#3F3D56"/>
</g>
<defs>
<clipPath id="clip0_105_5">
<rect width="1287" height="896" fill="white"/>
</clipPath>
</defs>
</svg>
