<svg width="33" height="33" viewBox="0 0 33 33" fill="none" xmlns="http://www.w3.org/2000/svg">
<path d="M31.875 31.875L21.625 21.625L31.875 31.875ZM25.0417 13.0833C25.0417 14.6537 24.7324 16.2087 24.1314 17.6596C23.5304 19.1104 22.6496 20.4287 21.5392 21.5392C20.4287 22.6496 19.1104 23.5304 17.6596 24.1314C16.2087 24.7324 14.6537 25.0417 13.0833 25.0417C11.5129 25.0417 9.95793 24.7324 8.50708 24.1314C7.05623 23.5304 5.73795 22.6496 4.62751 21.5392C3.51708 20.4287 2.63624 19.1104 2.03527 17.6596C1.43431 16.2087 1.125 14.6537 1.125 13.0833C1.125 9.91179 2.38489 6.87014 4.62751 4.62751C6.87014 2.38489 9.91179 1.125 13.0833 1.125C16.2549 1.125 19.2965 2.38489 21.5392 4.62751C23.7818 6.87014 25.0417 9.91179 25.0417 13.0833Z" stroke="#8B8B8B" stroke-width="2" stroke-linecap="round" stroke-linejoin="round"/>
</svg>
