<svg width="29" height="23" viewBox="0 0 29 23" fill="none" xmlns="http://www.w3.org/2000/svg">
<path d="M20.9583 21.8334H27.4167V19.25C27.4166 18.4447 27.1657 17.6594 26.6987 17.0033C26.2317 16.3472 25.5719 15.8529 24.8111 15.5891C24.0502 15.3253 23.226 15.3051 22.4531 15.5313C21.6803 15.7576 20.9971 16.219 20.4985 16.8514L20.9583 21.8334ZM20.9583 21.8334H8.04168H20.9583ZM20.9583 21.8334V19.25C20.9583 18.4027 20.7956 17.5928 20.4985 16.8514L20.9583 21.8334ZM8.04168 21.8334H1.58334V19.25C1.5834 18.4447 1.83436 17.6594 2.30133 17.0033C2.7683 16.3472 3.42808 15.8529 4.18896 15.5891C4.94983 15.3253 5.774 15.3051 6.54688 15.5313C7.31976 15.7576 8.00296 16.219 8.50151 16.8514L8.04168 21.8334ZM8.04168 21.8334V19.25C8.04168 18.4027 8.20443 17.5928 8.50151 16.8514L8.04168 21.8334ZM8.50151 16.8514C8.98118 15.6527 9.80899 14.6252 10.8782 13.9014C11.9474 13.1776 13.2089 12.7908 14.5 12.7908C15.7911 12.7908 17.0527 13.1776 18.1218 13.9014C19.191 14.6252 20.0188 15.6527 20.4985 16.8514H8.50151ZM18.375 5.04169C18.375 6.0694 17.9668 7.05502 17.2401 7.78173C16.5133 8.50843 15.5277 8.91669 14.5 8.91669C13.4723 8.91669 12.4867 8.50843 11.76 7.78173C11.0333 7.05502 10.625 6.0694 10.625 5.04169C10.625 4.01397 11.0333 3.02835 11.76 2.30165C12.4867 1.57494 13.4723 1.16669 14.5 1.16669C15.5277 1.16669 16.5133 1.57494 17.2401 2.30165C17.9668 3.02835 18.375 4.01397 18.375 5.04169V5.04169ZM26.125 8.91669C26.125 9.60183 25.8528 10.2589 25.3684 10.7434C24.8839 11.2278 24.2268 11.5 23.5417 11.5C22.8565 11.5 22.1995 11.2278 21.715 10.7434C21.2305 10.2589 20.9583 9.60183 20.9583 8.91669C20.9583 8.23154 21.2305 7.57446 21.715 7.08999C22.1995 6.60553 22.8565 6.33335 23.5417 6.33335C24.2268 6.33335 24.8839 6.60553 25.3684 7.08999C25.8528 7.57446 26.125 8.23154 26.125 8.91669ZM8.04168 8.91669C8.04168 9.60183 7.76951 10.2589 7.28504 10.7434C6.80057 11.2278 6.14349 11.5 5.45834 11.5C4.7732 11.5 4.11612 11.2278 3.63165 10.7434C3.14718 10.2589 2.87501 9.60183 2.87501 8.91669C2.87501 8.23154 3.14718 7.57446 3.63165 7.08999C4.11612 6.60553 4.7732 6.33335 5.45834 6.33335C6.14349 6.33335 6.80057 6.60553 7.28504 7.08999C7.76951 7.57446 8.04168 8.23154 8.04168 8.91669Z" stroke="white" stroke-width="2" stroke-linecap="round" stroke-linejoin="round"/>
</svg>
