<svg width="27" height="29" viewBox="0 0 27 29" fill="none" xmlns="http://www.w3.org/2000/svg">
<path d="M1.83334 7.20833V21.7917C1.83334 25.0146 7.05709 27.625 13.5 27.625C19.9429 27.625 25.1667 25.0146 25.1667 21.7917V7.20833M1.83334 7.20833H25.1667M1.83334 7.20833C1.83334 10.4313 7.05709 13.0417 13.5 13.0417C19.9429 13.0417 25.1667 10.4313 25.1667 7.20833M1.83334 7.20833C1.83334 3.98542 7.05709 1.375 13.5 1.375C19.9429 1.375 25.1667 3.98542 25.1667 7.20833M25.1667 14.5C25.1667 17.7229 19.9429 20.3333 13.5 20.3333C7.05709 20.3333 1.83334 17.7229 1.83334 14.5" stroke="white" stroke-width="2" stroke-linecap="round" stroke-linejoin="round"/>
</svg>
