<svg width="30" height="26" viewBox="0 0 30 26" fill="none" xmlns="http://www.w3.org/2000/svg">
<path fill-rule="evenodd" clip-rule="evenodd" d="M1.87503 0C1.37774 0 0.900817 0.195663 0.549182 0.543944C0.197547 0.892226 0 1.3646 0 1.85714V24.1429C0 24.6354 0.197547 25.1078 0.549182 25.4561C0.900817 25.8043 1.37774 26 1.87503 26C2.37231 26 2.84923 25.8043 3.20087 25.4561C3.5525 25.1078 3.75005 24.6354 3.75005 24.1429V1.85714C3.75005 1.3646 3.5525 0.892226 3.20087 0.543944C2.84923 0.195663 2.37231 0 1.87503 0ZM21.1747 17.2584C20.8331 17.6087 20.6441 18.0778 20.6484 18.5647C20.6527 19.0517 20.8499 19.5175 21.1975 19.8618C21.5451 20.2061 22.0154 20.4014 22.507 20.4057C22.9987 20.4099 23.4723 20.2227 23.8259 19.8844L29.451 14.313C29.8025 13.9647 30 13.4924 30 13C30 12.5076 29.8025 12.0353 29.451 11.687L23.8259 6.11557C23.653 5.9382 23.4461 5.79671 23.2173 5.69938C22.9886 5.60205 22.7425 5.55082 22.4936 5.54868C22.2446 5.54654 21.9977 5.59352 21.7673 5.6869C21.5368 5.78028 21.3275 5.91818 21.1514 6.09255C20.9754 6.26692 20.8361 6.47428 20.7419 6.70251C20.6476 6.93075 20.6001 7.1753 20.6023 7.42189C20.6045 7.66848 20.6562 7.91217 20.7545 8.13875C20.8527 8.36533 20.9956 8.57026 21.1747 8.74157L23.5991 11.1429H9.37512C8.87784 11.1429 8.40092 11.3385 8.04928 11.6868C7.69765 12.0351 7.5001 12.5075 7.5001 13C7.5001 13.4925 7.69765 13.9649 8.04928 14.3132C8.40092 14.6615 8.87784 14.8571 9.37512 14.8571H23.5991L21.1747 17.2584Z" fill="white"/>
</svg>
